<?xml version="1.0" standalone="no"?>
<!DOCTYPE svg PUBLIC "-//W3C//DTD SVG 20010904//EN" "http://www.w3.org/TR/2001/REC-SVG-20010904/DTD/svg10.dtd">
<!-- Created using Krita: https://krita.org -->
<svg xmlns="http://www.w3.org/2000/svg" 
    xmlns:xlink="http://www.w3.org/1999/xlink"
    xmlns:krita="http://krita.org/namespaces/svg/krita"
    xmlns:sodipodi="http://sodipodi.sourceforge.net/DTD/sodipodi-0.dtd"
    width="576pt"
    height="576pt"
    viewBox="0 0 576 576">
<defs/>
<path id="shape0" transform="matrix(24 0 0 24 72 96)" fill="none" stroke="#e6e6e6" stroke-width="2" stroke-linecap="round" stroke-linejoin="round" d="M9 6.4L9 16M9 6.4C9 4.15979 9 3.03969 8.564 2.18404C8.1805 1.43139 7.5686 0.81947 6.81596 0.43597C5.96031 0 4.84021 0 2.6 0L1.6 0C1.03995 0 0.75992 0 0.54601 0.10899C0.35785 0.20487 0.20487 0.35785 0.10899 0.54601C0 0.75992 0 1.03995 0 1.6L0 12.4C0 12.9601 0 13.2401 0.10899 13.454C0.20487 13.6422 0.35785 13.7951 0.54601 13.891C0.75992 14 1.03995 14 1.6 14L4.54668 14C5.08687 14 5.35696 14 5.61814 14.0466C5.84995 14.0879 6.0761 14.1563 6.29191 14.2506C6.53504 14.3567 6.75977 14.5065 7.2092 14.8062L9 16M9 6.4C9 4.15979 9 3.03969 9.436 2.18404C9.8195 1.43139 10.4314 0.81947 11.184 0.43597C12.0397 0 13.1598 0 15.4 0L16.4 0C16.9601 0 17.2401 0 17.454 0.10899C17.6422 0.20487 17.7951 0.35785 17.891 0.54601C18 0.75992 18 1.03995 18 1.6L18 12.4C18 12.9601 18 13.2401 17.891 13.454C17.7951 13.6422 17.6422 13.7951 17.454 13.891C17.2401 14 16.9601 14 16.4 14L13.4533 14C12.9131 14 12.643 14 12.3819 14.0466C12.15 14.0879 11.9239 14.1563 11.7081 14.2506C11.465 14.3567 11.2402 14.5065 10.7908 14.8062L9 16" sodipodi:nodetypes="cccccccccccccccccccccccccccccccccccc"/>
</svg>
